<svg width="20" height="20" viewBox="0 0 533.5 544.3" xmlns="http://www.w3.org/2000/svg">
  <path fill="#4285F4" d="M533.5 278.4c0-17.4-1.6-34.1-4.6-50.2H272v95h147.1c-6.4 34.6-25.1 63.9-53.5 83.3v68h86.4c50.5-46.6 81.5-115.4 81.5-196.1z"/>
  <path fill="#34A853" d="M272 544.3c72.7 0 133.6-24.1 178.2-65.5l-86.4-68c-24 16-54.6 25.5-91.8 25.5-70.5 0-130.3-47.6-151.6-111.2H32.7v69.9c44.8 89.3 137.3 149.3 239.3 149.3z"/>
  <path fill="#FBBC05" d="M120.4 325.1c-10.2-30.5-10.2-63.3 0-93.8V161.4h-87.7C3.2 205.2-9.8 266 5.8 325.1h114.6z"/>
  <path fill="#EA4335" d="M272 107.7c39.6 0 75.3 13.7 103.4 40.7l77.4-77.4C408.3 24.3 347.4 0 272 0c-102 0-194.5 60-239.3 149.3l87.7 69.9C141.7 155.3 201.5 107.7 272 107.7z"/>
</svg>
